<svg width="6" height="13" viewBox="0 0 6 13" fill="none" xmlns="http://www.w3.org/2000/svg">
<path d="M0.167099 11.1626C0.115594 11.2198 0.0753287 11.2872 0.0486016 11.3607C0.0218748 11.4343 0.00920958 11.5127 0.0113301 11.5915C0.0134511 11.6702 0.0303154 11.7477 0.0609603 11.8196C0.0916052 11.8915 0.135431 11.9564 0.189935 12.0105C0.244439 12.0646 0.308555 12.1069 0.37862 12.1349C0.448686 12.163 0.523329 12.1763 0.598289 12.1741C0.673249 12.1718 0.747057 12.1541 0.8155 12.1219C0.883942 12.0898 0.945679 12.0437 0.997184 11.9865L5.84981 6.58964C5.95002 6.47831 6.00586 6.3309 6.00586 6.17769C6.00586 6.02447 5.95002 5.87706 5.84981 5.76573L0.997183 0.368296C0.946017 0.309794 0.884295 0.262553 0.8156 0.229317C0.746906 0.196082 0.67261 0.177515 0.597026 0.174695C0.521443 0.171874 0.446079 0.184857 0.375312 0.212887C0.304545 0.240919 0.239787 0.283438 0.184798 0.337979C0.129808 0.39252 0.0856847 0.457994 0.0549898 0.530597C0.0242948 0.6032 0.00764031 0.681487 0.0059938 0.760909C0.00434681 0.84033 0.0177407 0.919303 0.0453973 0.993242C0.0730538 1.06718 0.114422 1.13461 0.167098 1.19161L4.64978 6.17769L0.167099 11.1626Z" fill="#797271"/>
</svg>
