<svg width="28" height="29" viewBox="0 0 28 29" fill="none" xmlns="http://www.w3.org/2000/svg">
<g clip-path="url(#clip0_40_128)">
<path d="M27.4423 7.92155C27.284 7.32587 26.972 6.78221 26.5376 6.34498C26.1032 5.90776 25.5615 5.5923 24.9669 5.43019C22.7778 4.84155 14.0278 4.84155 14.0278 4.84155C14.0278 4.84155 5.27777 4.84155 3.08868 5.43019C2.49402 5.5923 1.95237 5.90776 1.51794 6.34498C1.08351 6.78221 0.771527 7.32587 0.613226 7.92155C0.0277711 10.1202 0.027771 14.7052 0.027771 14.7052C0.027771 14.7052 0.0277711 19.2902 0.613226 21.4888C0.771527 22.0845 1.08351 22.6282 1.51794 23.0654C1.95237 23.5026 2.49402 23.8181 3.08868 23.9802C5.27777 24.5688 14.0278 24.5688 14.0278 24.5688C14.0278 24.5688 22.7778 24.5688 24.9669 23.9802C25.5615 23.8181 26.1032 23.5026 26.5376 23.0654C26.972 22.6282 27.284 22.0845 27.4423 21.4888C28.0278 19.2902 28.0278 14.7052 28.0278 14.7052C28.0278 14.7052 28.0278 10.1202 27.4423 7.92155Z" fill="#797271"/>
<path d="M11.1642 18.8686V10.5417L18.4823 14.7052L11.1642 18.8686Z" fill="#F3EADE"/>
</g>
<defs>
<clipPath id="clip0_40_128">
<rect width="28" height="28" fill="white" transform="translate(0 0.705078)"/>
</clipPath>
</defs>
</svg>
