<svg width="60" height="60" viewBox="0 0 60 60" fill="none" xmlns="http://www.w3.org/2000/svg">
<g clip-path="url(#clip0_1_948)">
<path d="M45 27.5V32.5H55V27.5H45Z" fill="#FE9BA9"/>
<path d="M40 44.03C42.4 45.8 45.53 48.15 48 50C49 48.67 50 47.33 51 46C48.53 44.15 45.4 41.8 43 40C42 41.35 41 42.7 40 44.03Z" fill="#FE9BA9"/>
<path d="M51 14C50 12.67 49 11.33 48 10C45.53 11.85 42.4 14.2 40 16C41 17.32 42 18.68 43 20C45.4 18.2 48.53 15.88 51 14Z" fill="#FE9BA9"/>
<path d="M10 22.5C7.25 22.5 5 24.75 5 27.5V32.5C5 35.25 7.25 37.5 10 37.5H12.5V47.5H17.5V37.5H20L32.5 45V15L20 22.5H10ZM22.58 26.77L27.5 23.82V36.17L22.58 33.22L21.38 32.49H10V27.49H21.38L22.58 26.76V26.77Z" fill="#787271"/>
<path d="M38.75 30.0001C38.75 26.6701 37.3 23.6801 35 21.6201V38.3501C37.3 36.3301 38.75 33.3301 38.75 30.0001Z" fill="#787271"/>
</g>
<defs>
<clipPath id="clip0_1_948">
<rect width="50" height="40" fill="white" transform="translate(5 10)"/>
</clipPath>
</defs>
</svg>
