<svg width="20" height="18" viewBox="0 0 20 18" fill="none" xmlns="http://www.w3.org/2000/svg">
<path d="M12.5 14.5C12.5 16.15 11.15 17.5 9.5 17.5C7.85 17.5 6.5 16.15 6.5 14.5H8.5C8.5 15.05 8.95 15.5 9.5 15.5C10.05 15.5 10.5 15.05 10.5 14.5C10.5 13.95 10.05 13.5 9.5 13.5H0V11.5H9.5C11.15 11.5 12.5 12.85 12.5 14.5ZM17 4C17 2.07 15.43 0.5 13.5 0.5C11.57 0.5 10 2.07 10 4H12C12 3.17 12.67 2.5 13.5 2.5C14.33 2.5 15 3.17 15 4C15 4.83 14.33 5.5 13.5 5.5H0V7.5H13.5C15.43 7.5 17 5.93 17 4ZM16.5 8.5H0V10.5H16.5C17.33 10.5 18 11.17 18 12C18 12.83 17.33 13.5 16.5 13.5V15.5C18.43 15.5 20 13.93 20 12C20 10.07 18.43 8.5 16.5 8.5Z" fill="#8ECCED"/>
</svg>
