<svg width="16" height="24" viewBox="0 0 16 24" fill="none" xmlns="http://www.w3.org/2000/svg">
<path d="M0.429973 21.9765C0.292625 22.091 0.185251 22.2257 0.113979 22.3729C0.0427084 22.5201 0.00893497 22.6769 0.0145893 22.8343C0.0202436 22.9918 0.0652151 23.1468 0.146935 23.2906C0.228656 23.4344 0.345524 23.5641 0.490869 23.6723C0.636212 23.7805 0.807187 23.8651 0.994028 23.9212C1.18087 23.9774 1.37992 24.004 1.57981 23.9995C1.77971 23.9951 1.97653 23.9596 2.15904 23.8953C2.34155 23.8309 2.50618 23.7388 2.64353 23.6243L15.5839 12.8307C15.8511 12.608 16 12.3132 16 12.0067C16 11.7003 15.8511 11.4055 15.5839 11.1828L2.64353 0.387959C2.50709 0.270954 2.3425 0.176472 2.15931 0.110001C1.97613 0.0435295 1.778 0.00639725 1.57645 0.00075531C1.37489 -0.00488663 1.17392 0.02108 0.985209 0.0771408C0.796499 0.133204 0.623809 0.218243 0.477171 0.327324C0.330534 0.436407 0.212871 0.567354 0.131018 0.712561C0.0491638 0.857767 0.00475216 1.01434 0.000361443 1.17318C-0.00403023 1.33203 0.0316858 1.48997 0.105437 1.63785C0.179188 1.78573 0.289502 1.92058 0.429973 2.03459L12.3838 12.0067L0.429973 21.9765Z" fill="#797271"/>
</svg>
