<svg width="16" height="24" viewBox="0 0 16 24" fill="none" xmlns="http://www.w3.org/2000/svg">
<path opacity="0.7" d="M15.57 2.02351C15.7074 1.90901 15.8147 1.77433 15.886 1.62714C15.9573 1.47995 15.9911 1.32314 15.9854 1.16567C15.9798 1.0082 15.9348 0.853153 15.8531 0.709374C15.7713 0.565596 15.6545 0.435905 15.5091 0.327707C15.3638 0.219508 15.1928 0.134922 15.006 0.078776C14.8191 0.0226304 14.6201 -0.00397488 14.4202 0.000479721C14.2203 0.00493432 14.0235 0.0403613 13.841 0.104738C13.6584 0.169115 13.4938 0.26118 13.3565 0.375678L0.416135 11.1693C0.1489 11.392 0 11.6868 0 11.9933C0 12.2997 0.1489 12.5945 0.416135 12.8172L13.3565 23.612C13.4929 23.729 13.6575 23.8235 13.8407 23.89C14.0239 23.9565 14.222 23.9936 14.4236 23.9992C14.6251 24.0049 14.8261 23.9789 15.0148 23.9229C15.2035 23.8668 15.3762 23.7818 15.5228 23.6727C15.6695 23.5636 15.7871 23.4326 15.869 23.2874C15.9508 23.1422 15.9952 22.9857 15.9996 22.8268C16.004 22.668 15.9683 22.51 15.8946 22.3622C15.8208 22.2143 15.7105 22.0794 15.57 21.9654L3.6162 11.9933L15.57 2.02351Z" fill="#797271"/>
</svg>
