<svg width="28" height="28" viewBox="0 0 28 28" fill="none" xmlns="http://www.w3.org/2000/svg">
<path d="M5.57812 24.5308C5.57812 25.4517 5.96815 26.3355 6.6682 26.9866C7.36825 27.6378 8.31831 28.0006 9.30838 28.0006C10.2984 28.0006 11.2485 27.6378 11.9486 26.9866C12.6486 26.3355 13.0386 25.4517 13.0386 24.5308C13.0386 23.6099 12.6486 22.7262 11.9486 22.075C11.2485 21.4238 10.2984 21.061 9.30838 21.061C8.31831 21.061 7.36825 21.4238 6.6682 22.075C5.96815 22.7262 5.57812 23.6099 5.57812 24.5308ZM7.98829 23.3029C8.33831 22.9773 8.80834 22.7913 9.30838 22.7913C9.80841 22.7913 10.2784 22.9773 10.6285 23.3029C10.9785 23.6285 11.1785 24.0657 11.1785 24.5308C11.1785 24.9959 10.9785 25.4331 10.6285 25.7587C10.2784 26.0843 9.80841 26.2703 9.30838 26.2703C8.80834 26.2703 8.33831 26.0843 7.98829 25.7587C7.63826 25.4331 7.43825 24.9959 7.43825 24.5308C7.43825 24.0657 7.63826 23.6285 7.98829 23.3029Z" fill="white"/>
<path d="M24.8617 20.856C25.0317 20.7258 25.1417 20.549 25.1817 20.3444L27.9819 6.45597C28.0119 6.33504 28.0019 6.20481 27.9719 6.07457C27.9419 5.95364 27.8719 5.83271 27.7819 5.73969C27.6919 5.63736 27.5819 5.56295 27.4618 5.50713C27.3418 5.45132 27.2018 5.42341 27.0618 5.42341H22.6215C22.1015 5.42341 21.6915 5.81411 21.6915 6.28853C21.6915 6.77225 22.1115 7.15364 22.6215 7.15364H25.9417L23.4916 19.3118H8.24055L5.79039 7.15364H9.85066C10.3707 7.15364 10.7807 6.76295 10.7807 6.28853C10.7807 5.80481 10.3607 5.42341 9.85066 5.42341H5.40036L4.64031 2.6048C4.59031 2.41876 4.4703 2.25131 4.31029 2.13038C4.15028 2.00945 3.94027 1.94434 3.74025 1.94434H0.930063C0.680046 1.94434 0.45003 2.03736 0.270018 2.1955C0.0900061 2.35364 0 2.57689 0 2.80945C0 3.04201 0.100007 3.25597 0.270018 3.42341C0.44003 3.58155 0.680046 3.67457 0.930063 3.67457H3.0002L3.75025 6.46527L6.55044 20.3351C6.59044 20.5304 6.70045 20.7165 6.87046 20.8467C7.04047 20.9769 7.25049 21.0513 7.4705 21.0513H24.2716C24.4916 21.0513 24.7017 20.9769 24.8717 20.8467L24.8617 20.856Z" fill="white"/>
<path d="M22.4334 21.061C21.4433 21.061 20.4932 21.4238 19.7932 22.075C19.0932 22.7262 18.7031 23.6099 18.7031 24.5308C18.7031 25.4517 19.0932 26.3355 19.7932 26.9866C20.4932 27.6378 21.4433 28.0006 22.4334 28.0006C23.4234 28.0006 24.3735 27.6378 25.0736 26.9866C25.7736 26.3355 26.1636 25.4517 26.1636 24.5308C26.1636 23.6099 25.7736 22.7262 25.0736 22.075C24.3735 21.4238 23.4234 21.061 22.4334 21.061ZM23.7535 25.7587C23.4034 26.0843 22.9334 26.2703 22.4334 26.2703C21.9333 26.2703 21.4633 26.0843 21.1133 25.7587C20.7633 25.4331 20.5633 24.9959 20.5633 24.5308C20.5633 24.0657 20.7633 23.6285 21.1133 23.3029C21.4633 22.9773 21.9333 22.7913 22.4334 22.7913C22.9334 22.7913 23.4034 22.9773 23.7535 23.3029C24.1035 23.6285 24.3035 24.0657 24.3035 24.5308C24.3035 24.9959 24.1035 25.4331 23.7535 25.7587Z" fill="white"/>
<path d="M16.467 12.3251L19.3972 9.30185C19.5672 9.1251 19.4372 8.83673 19.1771 8.83673H17.247V0.929745C17.247 0.418117 16.797 -0.000488281 16.2469 -0.000488281C15.6969 -0.000488281 15.2469 0.418117 15.2469 0.929745V8.83673H13.3167C13.0567 8.83673 12.9167 9.1251 13.0967 9.30185L16.0269 12.3251C16.1469 12.446 16.357 12.446 16.467 12.3251Z" fill="white"/>
</svg>
