<svg width="24" height="24" viewBox="0 0 24 24" fill="none" xmlns="http://www.w3.org/2000/svg">
<g clip-path="url(#clip0_0_519)">
<path fill-rule="evenodd" clip-rule="evenodd" d="M21.4246 16.3252C18.9054 19.2436 13.2821 22.7842 12 23.3272C10.7734 23.8466 10.8953 23.0615 10.9476 22.7251L10.9541 22.6824C10.9766 22.5617 11.0328 22.2186 11.1228 21.653C11.1678 21.3363 11.2128 20.8612 11.089 20.5558C10.9541 20.2164 10.4255 20.0467 10.0319 19.9562C4.26242 19.1984 0 15.1374 0 10.296C0 4.90028 5.37582 0.5 12 0.5C18.6129 0.5 24 4.90028 24 10.296C24 12.4565 23.1565 14.4022 21.4246 16.3252ZM19.8201 13.2259H16.4461C16.3224 13.2259 16.2212 13.1241 16.2212 12.9997V12.9884V7.72842C16.2212 7.60399 16.3224 7.50219 16.4461 7.50219H19.8201C19.9438 7.50219 20.045 7.60399 20.045 7.72842V8.58812C20.045 8.71255 19.9438 8.81435 19.8201 8.81435H17.5258V9.70798H19.8201C19.9438 9.70798 20.045 9.80979 20.045 9.93422V10.7939C20.045 10.9183 19.9438 11.0201 19.8201 11.0201H17.5258V11.9138H19.8201C19.9438 11.9138 20.045 12.0156 20.045 12.14V12.9997C20.045 13.1241 19.9438 13.2259 19.8201 13.2259ZM3.97377 13.2259H3.98502H7.34772C7.47143 13.2259 7.57265 13.1241 7.57265 12.9997V12.14C7.57265 12.0156 7.47143 11.9138 7.34772 11.9138H5.05344V7.72842C5.05344 7.60399 4.95222 7.50219 4.82851 7.50219H3.97377C3.85006 7.50219 3.74884 7.60399 3.74884 7.72842V12.9884V12.9997C3.74884 13.1241 3.85006 13.2259 3.97377 13.2259ZM9.37185 7.50219H8.5173C8.3931 7.50219 8.29242 7.60348 8.29242 7.72842V12.9997C8.29242 13.1247 8.3931 13.2259 8.5173 13.2259H9.37185C9.49605 13.2259 9.59674 13.1247 9.59674 12.9997V7.72842C9.59674 7.60348 9.49605 7.50219 9.37185 7.50219ZM15.4002 12.9997V7.72842C15.4002 7.60399 15.299 7.50219 15.164 7.50219H14.3206C14.1969 7.50219 14.0844 7.60399 14.0844 7.72842V10.8505L11.6889 7.60399C11.6889 7.59645 11.6851 7.58891 11.6776 7.58137L11.6551 7.55875L11.6439 7.54743H11.6327C11.6327 7.53989 11.6289 7.53612 11.6214 7.53612V7.52481H11.5989L11.5877 7.5135H11.5764C11.5689 7.5135 11.5652 7.50973 11.5652 7.50219H11.5539H11.5427H11.5314H11.5202H11.5089H11.4977H10.6542C10.5305 7.50219 10.418 7.60399 10.418 7.72842V12.9997C10.418 13.1241 10.5305 13.2259 10.6542 13.2259H11.4977C11.6327 13.2259 11.7339 13.1241 11.7339 12.9997V9.86634L14.1294 13.1241C14.1444 13.1468 14.1631 13.1656 14.1856 13.1807H14.1969C14.1969 13.1882 14.2006 13.192 14.2081 13.192L14.2193 13.2033H14.2306H14.2418V13.2146H14.2643C14.2793 13.2222 14.2981 13.2259 14.3206 13.2259H15.164C15.299 13.2259 15.4002 13.1241 15.4002 12.9997Z" fill="#797271"/>
</g>
<defs>
<clipPath id="clip0_0_519">
<rect width="24" height="24" fill="white"/>
</clipPath>
</defs>
</svg>
