<svg width="26" height="17" viewBox="0 0 26 17" fill="none" xmlns="http://www.w3.org/2000/svg">
<path d="M25.1657 0.5H9.25534C8.87974 0.5 8.57531 0.804183 8.57531 1.17948V2.3294H5.2478C4.78609 2.3294 4.35578 2.56349 4.10529 2.95118L0.217552 8.96703C0.0754662 9.18669 -7.62939e-06 9.44254 -7.62939e-06 9.70421V13.1636C-7.62939e-06 13.5389 0.304424 13.8431 0.680029 13.8431H2.1713C2.1713 15.3103 3.36168 16.5 4.83041 16.5C6.29914 16.5 7.48952 15.3106 7.48952 13.8431H18.9858C18.9858 15.3103 20.1762 16.5 21.6449 16.5C23.1137 16.5 24.3041 15.3106 24.3041 13.8431H25.1657C25.5413 13.8431 25.8457 13.5389 25.8457 13.1636V1.17948C25.8457 0.804183 25.5413 0.5 25.1657 0.5Z" fill="#797271"/>
<path d="M5.1997 4.36816L2.37165 8.74415C2.21564 8.98532 2.38913 9.30342 2.6766 9.30342H7.17472C7.35353 9.30342 7.49866 9.15867 7.49866 8.97975V4.52582C7.49866 4.34715 7.35379 4.20215 7.17472 4.20215H5.50464C5.38155 4.20215 5.26656 4.26466 5.1997 4.36816Z" fill="#FBFAF6"/>
<path d="M4.83013 15.291C4.03073 15.291 3.38268 14.6435 3.38268 13.8447C3.38268 13.046 4.03073 12.3984 4.83013 12.3984C5.62954 12.3984 6.27759 13.046 6.27759 13.8447C6.27759 14.6435 5.62954 15.291 4.83013 15.291Z" fill="#FBFAF6"/>
<path d="M21.6444 15.291C20.845 15.291 20.197 14.6435 20.197 13.8447C20.197 13.046 20.845 12.3984 21.6444 12.3984C22.4438 12.3984 23.0919 13.046 23.0919 13.8447C23.0919 14.6435 22.4438 15.291 21.6444 15.291Z" fill="#FBFAF6"/>
</svg>
